<svg width="24" height="22" viewBox="0 0 24 22" fill="none" xmlns="http://www.w3.org/2000/svg">
<g id="Group 1177">
<path id="Vector" d="M22.7241 0.44043H16.045L13.346 4.26684L11.7402 8.0591L16.045 8.5374L20.5205 8.07618L23.8344 2.33656C24.3127 1.49953 23.6978 0.44043 22.7241 0.44043Z" fill="#0060D9"/>
<path id="Vector_2" d="M0.175226 2.35363L2.95963 7.11958C3.30127 7.70037 3.91623 8.0591 4.59952 8.0591L11.7399 8.07618L16.0446 0.44043H1.26849C0.294802 0.44043 -0.320158 1.51661 0.175226 2.35363Z" fill="#4285F4"/>
<path id="Vector_3" d="M13.1582 20.9235C12.6799 21.7605 11.4671 21.7776 10.9717 20.9405L8.20439 16.2942C7.86274 15.7134 7.84566 14.9788 8.1873 14.381L11.7575 8.06055L20.5207 8.07762L13.1582 20.9235Z" fill="#4285F4"/>
</g>
</svg>
