<svg width="24" height="24" viewBox="0 0 24 24" fill="none" xmlns="http://www.w3.org/2000/svg">
<path d="M10.2503 23.0001C9.96677 23.0001 9.69676 22.8801 9.50677 22.6691L0.958766 13.1711C0.668766 12.8486 0.509766 12.4326 0.509766 11.9996C0.509766 11.5666 0.669266 11.1511 0.959266 10.8286L9.50677 1.33115C9.88627 0.909148 10.6143 0.909148 10.9938 1.33115L19.5423 10.8291C20.1423 11.4961 20.1423 12.5036 19.5423 13.1706L10.9938 22.6691C10.8038 22.8801 10.5338 23.0001 10.2503 23.0001Z" fill="url(#paint0_linear_157524_226895)"/>
<path opacity="0.05" d="M19.9893 12.0003C19.9893 12.4203 19.8393 12.8403 19.5393 13.1703L11.8293 21.7453L11.6593 21.9303L8.6343 18.5703C8.1193 17.9953 8.1193 17.1353 8.6343 16.5603L12.3193 12.4653C12.5593 12.2003 12.5593 11.8003 12.3193 11.5353L8.6343 7.44031C8.1193 6.86531 8.1193 6.00531 8.6343 5.43031L11.6593 2.07031L11.8293 2.25531L19.5393 10.8303C19.8393 11.1603 19.9893 11.5803 19.9893 12.0003Z" fill="black"/>
<path opacity="0.05" d="M19.9905 11.9999C19.9905 12.4199 19.8405 12.8399 19.5405 13.1699L11.8305 21.7449L8.82055 18.3999C8.39055 17.9249 8.39055 17.2049 8.82055 16.7299L12.5055 12.6349C12.8305 12.2699 12.8305 11.7299 12.5055 11.3649L8.82055 7.26988C8.39055 6.79488 8.39055 6.07488 8.82055 5.59988L11.8305 2.25488L19.5405 10.8299C19.8405 11.1599 19.9905 11.5799 19.9905 11.9999Z" fill="black"/>
<path d="M13.7402 22.9996C13.4567 22.9996 13.1867 22.8797 12.9967 22.6686L9.00473 18.2331C8.66223 17.8526 8.66273 17.2756 9.00473 16.8951L12.6902 12.8006C13.1012 12.3441 13.1012 11.6556 12.6902 11.1991L9.00473 7.10465C8.66273 6.72415 8.66223 6.14715 9.00473 5.76665L12.9967 1.33115C13.3762 0.909148 14.1042 0.909148 14.4837 1.33115L23.0322 10.8291C23.6322 11.4961 23.6322 12.5031 23.0327 13.1706L14.4832 22.6686C14.2937 22.8797 14.0237 22.9996 13.7402 22.9996Z" fill="url(#paint1_linear_157524_226895)"/>
<path d="M18.9963 17.161C18.7128 17.161 18.4428 17.041 18.2533 16.83L14.9593 13.1705C14.6688 12.8475 14.5093 12.431 14.5098 11.9975C14.5098 11.565 14.6698 11.15 14.9593 10.828L18.2528 7.16904C18.6318 6.74704 19.3603 6.74704 19.7393 7.16904L23.0333 10.8285C23.6333 11.4965 23.6333 12.5025 23.0338 13.17L19.7393 16.83C19.5503 17.041 19.2798 17.161 18.9963 17.161Z" fill="url(#paint2_linear_157524_226895)"/>
<defs>
<linearGradient id="paint0_linear_157524_226895" x1="8.36927" y1="1.32965" x2="12.1343" y2="22.6831" gradientUnits="userSpaceOnUse">
<stop offset="0.003" stop-color="#A33094"/>
<stop offset="0.998" stop-color="#6D246B"/>
</linearGradient>
<linearGradient id="paint1_linear_157524_226895" x1="13.6917" y1="1.00615" x2="17.4572" y2="22.3596" gradientUnits="userSpaceOnUse">
<stop stop-color="#E288C5"/>
<stop offset="0.998" stop-color="#D76DBB"/>
</linearGradient>
<linearGradient id="paint2_linear_157524_226895" x1="18.1138" y1="6.99154" x2="19.8818" y2="17.0205" gradientUnits="userSpaceOnUse">
<stop offset="0.006" stop-color="#E9A0CB"/>
<stop offset="0.998" stop-color="#E48DC7"/>
</linearGradient>
</defs>
</svg>
